<svg xmlns="http://www.w3.org/2000/svg" width="234.942" height="258.739" viewBox="0 0 234.942 258.739"><g transform="translate(131.029 -150.955)"><path d="M-11.778,441.982c0-1.457,0-2.847,0-4.236,0-17.675-.062-35.351.06-53.025.021-2.924-.827-3.771-3.768-3.793-12.378-.092-19.75-7.572-19.771-19.911q-.067-38.885,0-77.77c.018-12.545,7.462-20.087,19.953-20.133q29.34-.108,58.681,0c12.537.043,20,7.549,20.017,20.071q.059,37.648.009,75.3c0,2.463.309,5-.148,7.379A18.288,18.288,0,0,1,45.466,380.7c-1.851.054-3.7.008-5.821.008v61.3" transform="translate(-27.607 -32.401)" fill="none" stroke="#fff" stroke-miterlimit="10" stroke-width="3"/><path d="M-109.579,453.225v-50.65c-2.132-.222-3.967-.336-5.775-.615-8-1.235-14-7.623-14.057-15.716q-.235-34.621,0-69.244c.057-8.387,6.555-15.531,14.7-15.748,13.761-.368,27.539-.1,41.722-.1" transform="translate(0 -43.532)" fill="none" stroke="#fff" stroke-miterlimit="10" stroke-width="3"/><path d="M118.7,301.23c1.133-.074,2.26-.21,3.388-.212,11.659-.016,23.319-.038,34.978,0,11.328.035,18.034,6.72,18.046,17.988q.034,32.328,0,64.656c-.006,11.66-6.152,18.029-17.907,18.6-.466.023-.93.1-1.865.209v50.635" transform="translate(-72.718 -43.514)" fill="none" stroke="#fff" stroke-miterlimit="10" stroke-width="3"/><path d="M-2.691,179.176a26.786,26.786,0,0,0,26.736,26.732,26.727,26.727,0,0,0,.035-53.453A26.856,26.856,0,0,0-2.691,179.176Z" transform="translate(-37.156 0)" fill="none" stroke="#fff" stroke-miterlimit="10" stroke-width="3"/><path d="M150.877,231.548a21.662,21.662,0,1,0-21.892,21.587A21.642,21.642,0,0,0,150.877,231.548Z" transform="translate(-69.452 -16.753)" fill="none" stroke="#fff" stroke-miterlimit="10" stroke-width="3"/><path d="M-100.389,231.376A21.818,21.818,0,0,0-78.6,253.142,21.763,21.763,0,0,0-56.98,231.585a21.773,21.773,0,0,0-21.592-21.933A21.811,21.811,0,0,0-100.389,231.376Z" transform="translate(-8.536 -16.755)" fill="none" stroke="#fff" stroke-miterlimit="10" stroke-width="3"/><path d="M-34.505,443.658l-3.746.693v50.644" transform="translate(-26.739 -85.305)" fill="none" stroke="#fff" stroke-miterlimit="10" stroke-width="3"/><path d="M106,495.042V444.387l-3.93-.513" transform="translate(-67.844 -85.369)" fill="none" stroke="#fff" stroke-miterlimit="10" stroke-width="3"/></g></svg>